# xmcd
#
# Track frame offsets:
#  150
#  10377
#  19182
#  31129
#  40395
#  51023
#  60221
#  69481
#  80694
#  90106
#  102323
#  112250
#  123421
#  134289
#  145595
#  155822
#  168708
#  177979
#  186932
#  197381
#  207353
#  217557
#  231236
#  240522
#  250098
#  262895
#  273309
#  286238
#  298114
#  309405
#
# Disc length: 4263 seconds
#
# Revision: 0
# Processed by: cddbd v1.5.2PL0 Copyright (c) Steve Scherf et al.
# Submitted via: AltoMP3_Maker 3.0
#
DISCID=a510a51e
DTITLE=Various Artist - "X" Hillbilly
DYEAR=1900
DGENRE=
TTITLE0=Terry Fell - Truck Driving Man
TTITLE1=Zeke and Red - The World Would Be a Better Place if It Was a Farm
TTITLE2=Dalton Boys - Roll, Rattler, Roll
TTITLE3=Terry Fell - I'm Hot to Trot
TTITLE4=Happy Wainwright - Chig-A-Loo
TTITLE5=Jack Tucker - First on Your List
TTITLE6=Terry Fell - Mississippi River Shuffle
TTITLE7=Shorty Long - I Was Standing in the Station
TTITLE8=Al Rogers - The Hydrogen Bomb
TTITLE9=Geer Sisters - Unloved and Unclaimed
TTITLE10=Terry Fell - Don't Drop It
TTITLE11=Jack Tucker - Stark, Staring Madly in Love
TTITLE12=Zeke and Red - Get Your Dad Burn Fingers offa Me
TTITLE13=Al Rogers - Workin' Man Blues
TTITLE14=Terry Fell - He's in Love with You
TTITLE15=Bonnie Owens - I Traded My Heart for His Gold
TTITLE16=Al Rogers - I Ain't Spoken Fer
TTITLE17=Terry Fell - Fa-So-La
TTITLE18=Al Rogers - The Mirror 'cross the Bar
TTITLE19=Bonnie Owens - Take Me
TTITLE20=Terry Fell - Get aboard My Wagon
TTITLE21=May Hawk - Pastime Girl
TTITLE22=Terry Fell - We Wanna See Santa Do the Mambo
TTITLE23=Shorty Long - Make with Me de Love
TTITLE24=Dalton Boys - Just Like Me
TTITLE25=Terry Fell - You Don't Give a Hang about Me
TTITLE26=Maybelle Seiger - Unwanted
TTITLE27=Geer Sisters - Menu Love
TTITLE28=Terry Fell - Let's Stay Together Till after Christmas
TTITLE29=May Hawk - Don't Let Them See My Face
EXTD=
EXTT0=
EXTT1=
EXTT2=
EXTT3=
EXTT4=
EXTT5=
EXTT6=
EXTT7=
EXTT8=
EXTT9=
EXTT10=
EXTT11=
EXTT12=
EXTT13=
EXTT14=
EXTT15=
EXTT16=
EXTT17=
EXTT18=
EXTT19=
EXTT20=
EXTT21=
EXTT22=
EXTT23=
EXTT24=
EXTT25=
EXTT26=
EXTT27=
EXTT28=
EXTT29=
PLAYORDER=
